<svg xmlns="http://www.w3.org/2000/svg" width="512" height="512" xml:space="preserve"><circle fill="#323653" cx="256" cy="256" r="255.931"/><path fill="#F5853C" d="M161.858 379.781s.62-1.13.743-2.484c-4.939-.553-15.736-.221-22.609 1.041-.658 1.83 1.19 3.529 1.19 3.529s11.506-2.177 20.676-2.086z"/><path fill="#FBC59C" d="M174.227 498.516c20.887 7.043 42.047 11.234 63.059 12.79 5.853-12.141 9.132-25.754 9.132-40.134 0-51.106-41.432-92.54-92.541-92.54-37.069 0-69.043 21.803-83.814 53.28 27.832 29.469 63.075 52.748 104.164 66.604z"/><path fill="#F79E67" d="M127.655 443.479c-9.566 0-17.324 7.756-17.324 17.324 0 2.336.469 4.562 1.307 6.595a254.048 254.048 0 0 0 17.081 10.675c9.07-.553 16.259-8.063 16.259-17.27 0-9.569-7.754-17.324-17.323-17.324z"/><path fill="#F5853C" d="M127.655 443.479c-9.566 0-17.324 7.756-17.324 17.324 0 2.336.469 4.562 1.307 6.595a259.38 259.38 0 0 0 6.264 4.129 15.96 15.96 0 0 1-2.938-9.247c0-8.859 7.183-16.041 16.043-16.041 3.754 0 7.207 1.292 9.939 3.456a17.274 17.274 0 0 0-13.291-6.216z"/><path fill="#F79E67" d="M174.227 498.516a258.38 258.38 0 0 0 27.694 7.639 21.64 21.64 0 0 0 .902-6.188c0-11.967-9.702-21.668-21.669-21.668-9.691 0-17.893 6.36-20.666 15.134a261.936 261.936 0 0 0 13.739 5.083z"/><path fill="#F5853C" d="M166.249 495.662c2.6-8.067 10.161-13.908 19.095-13.908 4.696 0 9.013 1.616 12.432 4.319-3.974-4.752-9.945-7.774-16.623-7.774-9.691 0-17.893 6.36-20.666 15.134 1.907.765 3.828 1.506 5.762 2.229z"/><circle fill="#F79E67" cx="178.915" cy="422.481" r="10.071"/><path fill="#F5853C" d="M171.535 423.34c0-5.151 4.178-9.326 9.331-9.326 2.181 0 4.188.753 5.776 2.008a10.052 10.052 0 0 0-7.727-3.611c-5.561 0-10.071 4.508-10.071 10.071 0 5.562 4.51 10.072 10.071 10.072.143 0 .285-.005.428-.01-4.428-.728-7.808-4.569-7.808-9.204z"/><path fill="#F79E67" d="M228.951 448.326c0 5.564-4.51 10.076-10.072 10.076-5.564 0-10.075-4.512-10.075-10.076 0-5.562 4.511-10.071 10.075-10.071 5.561 0 10.072 4.51 10.072 10.071z"/><path fill="#F5853C" d="M211.5 449.188c0-5.152 4.175-9.329 9.326-9.329 2.184 0 4.19.756 5.78 2.008a10.056 10.056 0 0 0-7.727-3.612c-5.564 0-10.075 4.51-10.075 10.071 0 5.564 4.511 10.076 10.075 10.076.142 0 .285-.006.426-.014a9.324 9.324 0 0 1-7.805-9.2z"/><path fill="#F79E67" d="M218.878 415.717a5.014 5.014 0 1 1-10.027-.001 5.014 5.014 0 0 1 10.027.001z"/><path fill="#F5853C" d="M210.193 416.144a4.642 4.642 0 0 1 7.519-3.642 5.012 5.012 0 1 0-3.845 8.228c.069 0 .14-.003.212-.008a4.638 4.638 0 0 1-3.886-4.578z"/><g><circle fill="#F79E67" cx="111.635" cy="415.717" r="11.196"/><path fill="#F5853C" d="M103.431 416.671c0-5.723 4.645-10.368 10.37-10.368 2.425 0 4.656.838 6.423 2.234a11.178 11.178 0 0 0-8.591-4.017c-6.182 0-11.195 5.014-11.195 11.196 0 6.186 5.013 11.195 11.195 11.195.161 0 .319-.004.476-.01-4.919-.807-8.678-5.08-8.678-10.23z"/></g><path opacity=".1" d="M237.285 511.306c5.853-12.141 9.132-25.754 9.132-40.134 0-46.045-33.634-84.232-77.675-91.342 17.922 19.232 29.034 45.941 29.034 75.478 0 16.998-3.688 33.056-10.229 47.297a255.736 255.736 0 0 0 49.738 8.701zM446.217 241.8l-111.32 63.422-233.165-40.908L336.399 498.98c73.684-24.442 135.402-81.979 162.117-161.207a258.239 258.239 0 0 0 9.047-34.627L446.217 241.8z"/><g fill="#F2F2F2"><path d="M347.455 142.4c1.306 4.885-1.34 10.041-5.899 11.52-4.565 1.474-9.319-1.295-10.624-6.183-1.303-4.888 1.338-10.047 5.895-11.516 4.564-1.474 9.322 1.295 10.628 6.179z"/><path d="m333.649 124.305 3.78 21.331 7.308 20.195-3.782-21.332z"/><path d="m319.807 151.329 19.886-4.369 18.879-8.151-19.886 4.374zM271.85 459.405c.63 2.354-.645 4.832-2.838 5.543-2.196.712-4.486-.619-5.115-2.974-.629-2.354.645-4.836 2.839-5.545 2.196-.711 4.487.623 5.114 2.976z"/><path d="m265.202 450.697 1.822 10.268 3.517 9.719-1.818-10.268z"/><path d="m258.542 463.704 9.576-2.106 9.085-3.92-9.573 2.102z"/><g><path d="M452.13 376.514c.631 2.354-.644 4.832-2.837 5.543-2.196.712-4.486-.619-5.115-2.974-.629-2.354.645-4.836 2.839-5.545 2.196-.712 4.487.622 5.113 2.976z"/><path d="m445.483 367.806 1.823 10.267 3.516 9.719-1.818-10.268z"/><path d="m438.823 380.813 9.575-2.107 9.086-3.92-9.573 2.103z"/></g><g><path d="M67.787 158.06c.936 3.509-.96 7.212-4.235 8.271s-6.692-.929-7.628-4.437c-.938-3.511.96-7.215 4.234-8.271 3.276-1.06 6.691.927 7.629 4.437z"/><path d="m57.875 145.068 2.713 15.319 5.245 14.498-2.712-15.318z"/><path d="m47.935 164.47 14.281-3.137 13.556-5.853-14.281 3.14z"/></g></g><g><path fill="#915604" d="m389.911 309.41 30.764 5.811s1.513 19.845-10.856 33.7c-17.177-6.194-32.954-15.698-32.954-15.698l13.046-23.813z"/><path fill="#6C4013" d="m383.247 307.337 30.834 6.881s1.905 18.244-10.465 32.1c-17.177-6.195-33.416-15.166-33.416-15.166l13.047-23.815z"/><path fill="#895321" d="m376.965 305.383 30.881 7.442s2.139 17.353-10.23 31.208c-17.179-6.196-33.696-14.835-33.696-14.835l13.045-23.815z"/><g><path fill="#F2F2F2" d="m373.943 268.278-187.12-48.192c-16.215-5.044-29.765-4.068-38.762 5.168-6.605-1.104-12.921-1.829-18.828-2.179 6.611 20.617-15.913 42.008 31.232 68.992 7.175 2.44 187.895 58.451 187.895 58.451 22.71 7.063 46.848-5.62 53.912-28.329 7.065-22.71-5.618-46.846-28.329-53.911z"/><path fill="#303030" d="M384.722 345.438 167.51 275.466l3.149-22.944-36.478-6.841c1.038-5.797-.381-18.91-4.949-22.6-23.371-1.384-40.346 3.094-43.481 13.171-5.102 16.403 29.783 43.507 76.148 57.93 1.747.543 186.46 56.336 186.46 56.336 12.766 3.97 25.981 1.701 36.363-5.08z"/><circle fill="#A0A1A4" cx="170.249" cy="264.312" r="11.381"/><circle fill="#333" cx="170.248" cy="264.312" r="8.074"/><path fill="#4D4D4D" d="M162.307 219.197s-8.481 1.59-11.916 7.098c1.929 1.853 8.248 5.701 12.18 7.158l4.021-12.924-4.285-1.332zM179.733 236.676c-2.665 1.52-16.02-2.868-16.02-2.868l4.02-12.923 12.85 3.998c0-.001.327 9.713-.85 11.793zM207.105 245.829l4.285 1.332-1.333 4.284-4.284-1.333zM231.828 253.505l4.284 1.331-1.331 4.284-4.284-1.33zM256.5 261.175l4.284 1.333-1.333 4.283-4.284-1.333zM281.194 268.874l4.283 1.333-1.333 4.283-4.283-1.333zM305.905 276.568l4.283 1.332-1.332 4.285-4.284-1.332zM330.617 284.23l4.282 1.332-1.333 4.284-4.282-1.333zM355.305 291.939l4.284 1.332-1.332 4.284-4.284-1.332zM379.995 299.593l4.284 1.333-1.333 4.283-4.284-1.333zM350 262.111l.493-14.282 70.175-17.945 24.514 12.95-56.818 29.93z"/><path fill="#F2F2F2" d="m356.659 269.791.689-19.83 66.662-17.471 21.172 10.344-56.443 43.826z"/><path fill="#D7D7D7" d="M424.048 296.236c-2.673 8.594-11.809 13.395-20.403 10.721l-38.693-12.036c-8.595-2.674-13.396-11.811-10.721-20.404 2.673-8.596 11.809-13.396 20.403-10.722l38.693 12.035c8.595 2.675 13.396 11.81 10.721 20.406z"/><path fill="#D7D7D7" d="M424.048 296.236c-2.673 8.594-11.809 13.395-20.403 10.721l-38.693-12.036c-8.595-2.674-13.396-11.811-10.721-20.404 2.673-8.596 11.809-13.396 20.403-10.722l38.693 12.035c8.595 2.675 13.396 11.81 10.721 20.406z"/><g fill="#6E6D6D"><path d="M371.769 263.19c-7.673-.945-15.161 3.683-17.538 11.326-2.378 7.643 1.163 15.702 8.019 19.274l9.519-30.6zM416.302 277.093l-9.492 30.514c7.567.789 14.892-3.827 17.238-11.37 2.348-7.546-1.066-15.503-7.746-19.144z"/></g><path opacity=".1" d="M353.896 275.82c-1.832 8.196 2.895 16.562 11.056 19.101l38.693 12.036c8.16 2.538 16.798-1.669 19.938-9.457l-69.687-21.68z"/><path fill="gray" d="m436.939 249.234-6.271-4.233-32.374 17.489 9.257 9.565 3.061-2.183-6.466-8.067 26.395-13.712 4.566 2.565z"/><path opacity=".1" d="M101.625 224.905c-8.509 2.144-14.19 5.938-15.874 11.348-5.102 16.403 27.307 42.719 73.673 57.143 1.746.542 188.936 57.123 188.936 57.123 22.71 7.063 46.848-5.62 53.912-28.329.359-1.154.654-2.315.913-3.474l-301.56-93.811z"/><path fill="#303030" d="M237.462 316.019c88.7 26.967 66.111 85.71 153.222 97.774 1.26-1.017 1.78-3.268 1.363-4.383-9.228-24.686-25.414-63.265-12.082-62.215 1.599-1.226 2.821-1.628 1.364-4.384-49.326-17.471-111.991-30.056-142.503-31.175-3.548 1.198-2.402 4.059-1.364 4.383z"/><path fill="#F2F2F2" d="M238.826 311.637c88.7 26.965 66.111 85.709 153.221 97.773-5.028-25.993-24.645-67.695-10.718-66.599-57.794-21.111-110.75-32.573-142.503-31.174z"/><path opacity=".1" d="M238.826 311.637c88.7 26.965 66.111 85.709 153.221 97.773-1.665-8.613-4.934-18.949-8.052-28.883-24.339-9.146-48.488-40.91-58.662-55.601-34.988-9.47-65.424-14.217-86.507-13.289z"/></g><g><path fill="#ED1C24" d="M438.457 327.142c6.075 1.456 25.066 17.637 25.066 17.637s-24.264 5.815-30.338 4.359c-6.073-1.456-9.818-7.56-8.362-13.634 1.456-6.073 7.561-9.817 13.634-8.362z"/><path fill="#F7931E" d="M435.446 331.437c3.455.828 14.256 10.029 14.256 10.029s-13.798 3.307-17.253 2.479a6.433 6.433 0 0 1-4.755-7.753 6.43 6.43 0 0 1 7.752-4.755z"/></g></g></svg>